<svg xmlns="http://www.w3.org/2000/svg" viewBox="0 0 512 512" id="Church">
  <path d="M200.31 256.4a5 5 0 01-5-5V182.5a5 5 0 0110.08 0v68.86A5 5 0 01200.31 256.4zM311.69 256.4a5 5 0 01-5-5V182.43a5 5 0 0110.09 0v68.93A5 5 0 01311.69 256.4z" fill="#fffdeb" class="color000000 svgShape"></path>
  <path d="M334.09 201.71a5 5 0 01-2.8-.85L256 150.67l-75.29 50.19a5 5 0 01-7.11-1.59l-10-16.56a5 5 0 011.52-6.8l88-58.7a5 5 0 015.6 0l86.89 57.93a5 5 0 011.7 6.48L338.58 199a5 5 0 01-4.49 2.76zM174.75 181.63l4.76 7.92 73.69-49.13a5 5 0 015.6 0l73.36 48.91 4.21-8.28L256 127.46zM381.1 507a5 5 0 01-5-5V300.33L256 220.29l-120.06 80V502a5 5 0 01-10.09 0V297.63a5 5 0 012.25-4.19L253.2 210a5 5 0 015.6 0l125.1 83.4a5 5 0 012.25 4.19V502A5 5 0 01381.1 507z" fill="#fffdeb" class="color000000 svgShape"></path>
  <path d="M44.83 507a5 5 0 01-5-5V381.31a5 5 0 012.6-4.41l86.05-47.57a5 5 0 114.87 8.82L49.87 384.28V502A5 5 0 0144.83 507zM467.17 507a5 5 0 01-5-5V384.36l-83.34-43.7a5 5 0 114.68-8.93l86 45.12a5 5 0 012.7 4.46V502A5 5 0 01467.17 507zM293.13 506.5a5 5 0 01-5-5V442a32.09 32.09 0 10-64.18 0V501.3a5 5 0 01-10.08 0V442a42.17 42.17 0 0184.34 0v59.49A5 5 0 01293.13 506.5zM209.59 377.07H177.1a5 5 0 01-5-5V312a5 5 0 015-5h32.49a5 5 0 015 5v60A5 5 0 01209.59 377.07zM182.14 367h22.41V317.06H182.14zM334.9 377.07H302.41a5 5 0 01-5-5V312a5 5 0 015-5H334.9a5 5 0 015 5v60A5 5 0 01334.9 377.07zM307.45 367h22.41V317.06H307.45z" fill="#fffdeb" class="color000000 svgShape"></path>
  <path d="M440.38 467.41H407.89a5 5 0 01-5-5v-60a5 5 0 015-5h32.49a5 5 0 015 5v60A5 5 0 01440.38 467.41zm-27.44-10.08h22.4V407.4h-22.4zM104.11 467.41H71.62a5 5 0 01-5-5v-60a5 5 0 015-5h32.49a5 5 0 015 5v60A5 5 0 01104.11 467.41zM76.66 457.33h22.4V407.4H76.66zM272.24 377.07H239.76a5 5 0 01-5-5V312a5 5 0 015-5h32.48a5 5 0 015.05 5v60A5 5 0 01272.24 377.07zM244.8 367h22.4V317.06H244.8zM267.23 133.92a5 5 0 01-5-5V66.18a5 5 0 015-5h36.13V48.71H267.23a5 5 0 01-5-5V15.06H249.81V43.67a5 5 0 01-5 5H208.64V61.14h36.13a5 5 0 015 5v62.7a5 5 0 11-10.08 0V71.22H203.6a5 5 0 01-5-5V43.67a5 5 0 015-5h36.13V10a5 5 0 015-5h22.46a5 5 0 015 5V38.63H308.4a5 5 0 015 5V66.18a5 5 0 01-5 5H272.27v57.66A5 5 0 01267.23 133.92zM493.93 507H18.07a5 5 0 110-10.08H493.93a5 5 0 110 10.08z" fill="#fffdeb" class="color000000 svgShape"></path>
</svg>
