<svg xmlns="http://www.w3.org/2000/svg" xml:space="preserve" width="91" height="91" id="glass">
  <path d="m62.471 84.896-13.826-4.229v-25.79c7.103-.519 12.208-5.925 12.843-13.877V5c0-.621-.504-1.125-1.125-1.125H34.676c-.621 0-1.125.504-1.125 1.125l.003 36.09c.633 7.866 5.737 13.269 12.84 13.787v25.79l-13.918 4.257a1.125 1.125 0 0 0 .329 2.201h29.429a1.125 1.125 0 0 0 .237-2.229zM59.238 6.125l.002 14.574c-.407.551-2.033 2.535-4.686 3.048-2.165.417-4.52-.255-6.996-2.001-2.31-1.628-4.49-2.548-6.521-2.791V11a1.125 1.125 0 0 0-2.249 0v7.979c-.142.021-.287.029-.427.059a7.266 7.266 0 0 0-2.56 1.08V6.125h23.437zM35.801 41V23.128c.278-.378 1.236-1.498 2.987-1.876V35a1.125 1.125 0 0 0 2.25 0V21.222c1.583.247 3.328 1.027 5.225 2.364 2.392 1.685 4.743 2.533 7.013 2.533.574 0 1.143-.055 1.707-.163 1.801-.348 3.225-1.2 4.258-2.046l.002 17c-.575 7.148-5.176 11.768-11.723 11.768-6.546 0-11.147-4.619-11.719-11.678zm4.53 43.875 7.188-2.198 7.189 2.198H40.331z" fill="#fffdeb" class="color000000 svgShape"></path>
  <path d="M39.12 37.209c-.21.21-.33.5-.33.79a1.13 1.13 0 0 0 1.12 1.13c.3 0 .59-.12.8-.33s.33-.5.33-.8c0-.29-.12-.58-.33-.79-.42-.42-1.17-.42-1.59 0z" fill="#fffdeb" class="color000000 svgShape"></path>
</svg>
