<svg xmlns="http://www.w3.org/2000/svg" enable-background="new 0 0 64 64" viewBox="0 0 64 64" id="Wedding">
  <path d="M35.834 0c-.014 0-.026 0-.039 0-1.602 0-3.01.988-3.835 1.722C31.136.988 29.728 0 28.126 0c-.013 0-.025 0-.039 0-.875.008-2.165.327-3.341 1.797-.858 1.073-1.149 2.286-.842 3.506.921 3.656 6.977 6.325 7.664 6.617C31.693 11.974 31.827 12 31.96 12s.267-.026.392-.08c.688-.292 6.743-2.961 7.665-6.617.308-1.22.017-2.433-.842-3.505C37.999.328 36.709.009 35.834 0zM38.078 4.813c-.534 2.123-4.287 4.246-6.117 5.092-1.766-.821-5.586-2.98-6.117-5.091-.155-.616-.008-1.177.465-1.768C26.865 2.351 27.452 2.008 28.103 2c.008 0 .016 0 .023 0 1.287 0 2.648 1.282 3.065 1.777.19.228.472.36.769.36s.578-.132.769-.36C32.743 3.76 34.253 2 35.794 2c.006 0 .013 0 .02 0 .652.007 1.241.349 1.799 1.047C38.085 3.637 38.232 4.198 38.078 4.813zM13 27c-.553 0-1 .448-1 1v1c0 .552.447 1 1 1s1-.448 1-1v-1C14 27.448 13.553 27 13 27zM19 27c-.553 0-1 .448-1 1v1c0 .552.447 1 1 1s1-.448 1-1v-1C20 27.448 19.553 27 19 27zM10.733 13.016c.521-.184.794-.755.61-1.276-.185-.521-.754-.793-1.276-.61C5.84 12.622 3 16.712 3 21.307V40c0 .553.447 1 1 1s1-.447 1-1V30v-8.693C5 17.558 7.304 14.226 10.733 13.016z" fill="#fffdeb" class="color000000 svgShape"></path>
  <path d="M1,64h5c0.553,0,1-0.447,1-1v-3.621l1,2.075V63c0,0.553,0.447,1,1,1h7h7c0.553,0,1-0.447,1-1v-1.546l1-2.075V63c0,0.553,0.447,1,1,1h5h5h22h5c0.553,0,1-0.447,1-1V39.6c0-0.642,0-1.715-8.483-4.548C55.415,35.018,55.308,35,55.2,35h-3.467C51.329,35,51,34.642,51,34.2v-3.154c1.537-0.916,2.75-2.338,3.42-4.047H55c1.654,0,3-1.346,3-3c0-1.302-0.839-2.402-2-2.816v-6.088C56,10.632,52.461,7,48.111,7H47h-1h-1.111C40.539,7,37,10.632,37,15.097V18c0,0.552,0.447,1,1,1s1-0.448,1-1v-2.903C39,11.735,41.642,9,44.889,9H46h1h1.111C51.358,9,54,11.735,54,15.097v2.387l-2-1.183V14c0-0.552-0.447-1-1-1h-2.733c0.111-0.409,0.207-0.835,0.285-1.278c0.095-0.544-0.269-1.063-0.813-1.158c-0.543-0.095-1.062,0.268-1.158,0.812c-0.502,2.86-2.053,6.27-6.581,6.27c-0.553,0-1,0.448-1,1V21c-1.654,0-3,1.346-3,3s1.346,3,3,3h0.58c1.184,3.019,4.061,5.158,7.42,5.158c0.692,0,1.359-0.1,2-0.27V34.2c0,0.738,0.285,1.404,0.742,1.905L47,37.047l-2.742-0.942C44.715,35.605,45,34.938,45,34.2V34c0-0.553-0.447-1-1-1s-1,0.447-1,1v0.2c0,0.441-0.329,0.8-0.733,0.8H38.8c-0.107,0-0.215,0.018-0.316,0.052C30,37.885,30,38.958,30,39.6v2.498C29.786,42.04,29.565,42,29.333,42H28V21.307c0-5.428-3.937-9.918-9.03-10.644C18.818,8.617,17.329,7,15.5,7c-0.553,0-1,0.448-1,1s0.447,1,1,1c0.813,0,1.5,0.916,1.5,2s-0.687,2-1.5,2S14,12.084,14,11c0-0.552-0.447-1-1-1s-1,0.448-1,1c0,0.783,0.205,1.509,0.547,2.126C8.835,13.783,6,17.103,6,21.097V24c0,0.552,0.447,1,1,1s1-0.448,1-1v-2.903C8,17.735,10.642,15,13.889,15H15h1h1.111C20.358,15,23,17.735,23,21.097v2.724c-2.786,0-4.776-1.272-5.919-3.783c0.252-0.695,0.45-1.448,0.593-2.255c0.096-0.544-0.269-1.063-0.813-1.158c-0.543-0.094-1.062,0.268-1.158,0.812C15.191,20.349,13.612,23.82,9,23.82c-0.553,0-1,0.448-1,1V27c-1.654,0-3,1.346-3,3s1.346,3,3,3h0.479c1.111,3.166,4.058,5.44,7.521,5.44c0.692,0,1.359-0.1,2-0.27V41c0,0.703,0.243,1.351,0.65,1.863l-2.682,1.072l-2.202-0.733c-0.529-0.176-1.091,0.108-1.265,0.632c-0.175,0.524,0.108,1.091,0.632,1.265l1.374,0.458l-0.943,0.964c-0.183,0.188-0.285,0.438-0.285,0.699c0,1.311,0.874,2.427,2.167,2.724c0.143,0.026,0.271,0.04,0.415,0.053C15.892,49.999,15.951,50,15.98,50H16c1.506,0,2.73-1.247,2.73-2.78c0-0.262-0.103-0.513-0.285-0.699l-0.999-1.022L21.193,44h8.14C29.701,44,30,44.332,30,44.739V52h-3v-1c0-0.553-0.447-1-1-1s-1,0.447-1,1v0.335l-0.771-0.596c-0.966-0.747-2.164-1.158-3.376-1.158c-1.481,0-2.93,0.617-3.976,1.693L16,52.178l-0.878-0.905c-1.045-1.075-2.493-1.692-3.975-1.692c-1.212,0-2.41,0.411-3.376,1.158L7,51.335V51c0-0.553-0.447-1-1-1s-1,0.447-1,1v1H2v-7.261C2,44.332,2.299,44,2.667,44H10h0.277H11c1.654,0,3-1.346,3-3v-1c0-0.553-0.447-1-1-1s-1,0.447-1,1v1c0,0.552-0.448,1-1,1h-0.723H10H2.667C1.196,42,0,43.229,0,44.739V63C0,63.553,0.447,64,1,64z M55,25v-1.054V23c0.552,0,1,0.449,1,1S55.552,25,55,25z M39,25c-0.552,0-1-0.449-1-1s0.448-1,1-1v0.946V25z M41,23.946V22v-2.403c2.953-0.293,5.212-1.903,6.522-4.597H50v1.871c0,0.354,0.187,0.681,0.491,0.861L53,19.215V22v1.946c0,3.425-2.691,6.211-6,6.211S41,27.371,41,23.946z M16,48L16,48c-0.062-0.005-0.115-0.01-0.146-0.015c-0.229-0.053-0.411-0.214-0.505-0.429l0.655-0.671l0.654,0.669C16.542,47.818,16.291,48,16,48z M18.453,13.126c0.086-0.156,0.164-0.317,0.231-0.486C22.809,13.226,26,16.884,26,21.307v6.474c-0.289-0.261-0.626-0.463-1-0.596v-6.088C25,17.103,22.165,13.783,18.453,13.126z M24,30.229V29c0.552,0,1,0.449,1,1s-0.448,1-1,1V30.229z M8,31c-0.552,0-1-0.449-1-1s0.448-1,1-1v1.229V31z M10,30.229V28v-2.228c2.572-0.251,4.626-1.488,6-3.559c1.379,2.103,3.42,3.315,6,3.56V28v2.229c0,3.425-2.691,6.211-6,6.211S10,33.654,10,30.229z M23.521,33H24c0.771,0,1.468-0.301,2-0.78V42h-5c-0.552,0-1-0.448-1-1v-3.671C21.62,36.364,22.878,34.833,23.521,33z M37,57h3v2h-3V57z M57,59h-3v-2h3V59z M62,62h-3v-5v-3.247c0-1.999,0.312-3.976,0.905-5.817L62,42.577V62z M61.1,39.389l-3.077,7.875C57.344,49.361,57,51.544,57,53.753V55h-4c-0.553,0-1,0.447-1,1v4c0,0.553,0.447,1,1,1h4v1H45v-1.991l3.735-2.309c0.172-0.07,0.33-0.173,0.444-0.333l6.889-9.758c0.166-0.236,0.223-0.532,0.154-0.813l-0.698-2.878l2.015-1.384c0.22-0.15,0.37-0.383,0.418-0.645s-0.011-0.532-0.162-0.751L54.914,37h0.123C57.253,37.746,59.72,38.707,61.1,39.389z M46.614,56.572l-1.826-8.185c0.02-0.036,0.046-0.067,0.062-0.106L46.511,44H47h0.489l1.662,4.281c0.015,0.039,0.042,0.07,0.062,0.106l-1.726,7.734l-0.868,0.537C46.614,56.629,46.621,56.601,46.614,56.572z M40.177,42.659l-1.754-1.204l2.097-3.015l3.056,13.692l-3.746-5.307l0.754-3.106C40.681,43.315,40.52,42.894,40.177,42.659z M47,39.275l1,0.343L47.537,42H47h-0.537L46,39.619L47,39.275z M53.417,43.72l0.754,3.106l-3.746,5.307L53.48,38.44l2.097,3.015l-1.754,1.204C53.48,42.894,53.319,43.315,53.417,43.72z M51,38.535l-0.847-0.291c-0.017-0.05-0.037-0.098-0.061-0.144L51,37.787V38.535z M50.943,40.63l-0.955,4.28l-0.656-1.69c0.002-0.01,0.009-0.018,0.011-0.028l0.566-2.916L50.943,40.63z M44.657,43.19c0.002,0.01,0.009,0.018,0.011,0.028l-0.656,1.69l-0.955-4.28l1.034-0.355L44.657,43.19z M43,38.535v-0.748l0.909,0.312c-0.025,0.046-0.044,0.095-0.061,0.144L43,38.535z M32,39.903c0.81-0.612,4.097-1.938,6.963-2.903h0.123l-2.879,4.139c-0.151,0.219-0.21,0.489-0.162,0.751s0.198,0.494,0.418,0.645l2.015,1.384l-0.698,2.878c-0.068,0.281-0.012,0.577,0.154,0.813l6.889,9.758c0.072,0.102,0.172,0.168,0.27,0.234l-1.617,0.999C43.18,58.783,43,59.104,43,59.451V62h-6v-1h4c0.553,0,1-0.447,1-1v-4c0-0.553-0.447-1-1-1h-4v-1.247c0-2.209-0.344-4.392-1.042-6.546l-1.787-4.571c-0.201-0.514-0.779-0.769-1.296-0.567c-0.515,0.201-0.769,0.781-0.567,1.296l1.768,4.515C34.688,49.777,35,51.754,35,53.753V57v5h-3V44.739V39.903z M30,54v8h-3v-8H30z M8.994,52.321c1.386-1.071,3.467-0.918,4.693,0.346l1.233,1.271c0.289,0.297,0.716,0.376,1.079,0.236c0.363,0.14,0.791,0.061,1.079-0.236l1.232-1.271c1.229-1.265,3.308-1.418,4.694-0.347L25,53.862v0.91l-2.9,6.019c-0.065,0.136-0.1,0.284-0.1,0.435V62h-6h-6v-0.774c0-0.15-0.034-0.299-0.1-0.435L7,54.772v-0.91L8.994,52.321z M5,54v8H2v-8H5z" fill="#fffdeb" class="color000000 svgShape"></path>
  <path d="M44 21c-.553 0-1 .448-1 1v1c0 .552.447 1 1 1s1-.448 1-1v-1C45 21.448 44.553 21 44 21zM50 21c-.553 0-1 .448-1 1v1c0 .552.447 1 1 1s1-.448 1-1v-1C51 21.448 50.553 21 50 21z" fill="#fffdeb" class="color000000 svgShape"></path>
  <circle cx="48" cy="60" r="1" fill="#fffdeb" class="color000000 svgShape"></circle>
</svg>
